# xmcd CD database file
# Copyright (C) 1995-1998 Ti Kan
#
# Track frame offsets:
#	150
#	34142
#	59927
#	89185
#	107645
#	131120
#
# Disc length: 2087 seconds
#
# Revision: 1
# Processed by: cddbd v1.4PL0 Copyright (c) Steve Scherf et al.
# Submitted via: CDex 1.30
#
DISCID=5d082506
DTITLE=Percy Mayfield - Greatest Hits
DYEAR=2002
DGENRE=Blues
TTITLE0=CRIED LAST NIGHT/BABY PLEASE
TTITLE1=TWO YEARS OF TORTURE
TTITLE2=EVERYDAY I HAVE THE BLUES
TTITLE3=STRANGE THINGS HAPPEN
TTITLE4=PLEASE SEND ME SOMEONE TO LOVE
TTITLE5=THREE O'CLOCK IN THE MORNING BLUES
EXTD=YEAR: 2002  ID3G:   0
EXTT0=
EXTT1=
EXTT2=
EXTT3=
EXTT4=
EXTT5=
PLAYORDER=
